# xmcd
#
# Track frame offsets: 
#        150
#        17469
#        32584
#        51894
#        70900
#
# Disc length: 1201 seconds
#
# Revision: 1
# Processed by: cddbd v1.5.1PL2 Copyright (c) Steve Scherf et al.
# Submitted via: ExactAudioCopy v0.95a5
#
DISCID=3604af05
DTITLE=The Legs - The Legs EP
DYEAR=2006
DGENRE=Blues
TTITLE0=Bathroom Door
TTITLE1=Mid December
TTITLE2=Take The Step
TTITLE3=I Can Tell You
TTITLE4=Coming Home
EXTD=YEAR: 20010718
EXTT0=
EXTT1=
EXTT2=
EXTT3=
EXTT4=
PLAYORDER=
